<?xml version="1.0" encoding="UTF-8"?>
<svg id="Camada_2" xmlns="http://www.w3.org/2000/svg" viewBox="0 0 548.05 360.44">
  <g id="Camada_9">
    <g>
      <polygon points="67.5 255.35 67.5 254.01 55.91 254.01 55.91 272.74 67.56 272.74 67.56 271.4 57.49 271.4 57.49 263.76 66.25 263.76 66.25 262.42 57.49 262.42 57.49 255.35 67.5 255.35" style="fill: #b80e1a;"/>
      <path d="M75.05,258.56c-1.66,0-2.96.64-3.93,1.92-.96,1.28-1.45,3-1.45,5.16v.18c0,2.2.49,3.94,1.47,5.23.98,1.29,2.27,1.94,3.88,1.94,1.91,0,3.36-.7,4.35-2.11l.06,1.85h1.44v-19.76h-1.53v7.81c-.99-1.48-2.42-2.23-4.3-2.23ZM79.35,269.15c-.8,1.67-2.14,2.51-4.04,2.51-1.3,0-2.3-.51-3.01-1.54-.71-1.02-1.07-2.42-1.07-4.2,0-1.98.36-3.48,1.08-4.5.72-1.02,1.73-1.52,3.02-1.52,1.88,0,3.22.9,4.01,2.72v6.54Z" style="fill: #b80e1a;"/>
      <path d="M84.88,258.82v9.06c.02,1.69.41,2.96,1.18,3.83.77.86,1.9,1.29,3.38,1.29,2.03,0,3.51-.67,4.44-2.02l.03,1.76h1.49v-13.92h-1.54v10.07c-.59,1.84-2,2.77-4.23,2.77s-3.22-1.33-3.22-3.98v-8.86h-1.53Z" style="fill: #b80e1a;"/>
      <path d="M101.3,261.38c.77-1,1.85-1.51,3.24-1.51,1.09,0,1.99.33,2.71,1,.72.67,1.11,1.55,1.18,2.64h1.48c-.07-1.48-.6-2.68-1.59-3.59-.99-.91-2.25-1.36-3.78-1.36-1.2,0-2.25.29-3.15.86-.9.57-1.58,1.39-2.07,2.44-.48,1.05-.72,2.27-.72,3.64v.46c0,2.14.53,3.85,1.6,5.12,1.07,1.27,2.51,1.91,4.34,1.91.93,0,1.79-.2,2.6-.59.81-.39,1.46-.94,1.95-1.64.49-.7.75-1.47.8-2.32h-1.48c-.06.96-.45,1.74-1.18,2.35-.72.6-1.62.91-2.7.91-1.4,0-2.48-.5-3.25-1.49-.77-1-1.15-2.38-1.15-4.16v-.45c0-1.81.38-3.22,1.15-4.22Z" style="fill: #b80e1a;"/>
      <path d="M118.66,264.65c-2.01,0-3.59.39-4.71,1.18-1.13.79-1.69,1.86-1.69,3.22,0,1.14.41,2.08,1.24,2.83.83.75,1.91,1.12,3.25,1.12.94,0,1.82-.19,2.66-.57.84-.38,1.52-.92,2.07-1.63.04.86.14,1.51.29,1.94h1.65v-.15c-.28-.67-.42-1.68-.42-3.02v-6.59c-.03-1.39-.49-2.47-1.38-3.25-.9-.78-2.12-1.16-3.67-1.16s-2.77.4-3.79,1.22c-1.03.81-1.54,1.77-1.54,2.88h1.54c0-.76.35-1.42,1.05-1.97.7-.55,1.59-.82,2.66-.82,1.17,0,2.07.29,2.68.86.61.57.92,1.35.92,2.35v1.58h-2.79ZM121.45,268.89c-.37.83-.96,1.5-1.77,1.99-.81.5-1.73.75-2.76.75-.93,0-1.68-.26-2.26-.77-.58-.52-.87-1.16-.87-1.94,0-.95.43-1.7,1.3-2.24.87-.55,2.07-.83,3.6-.84h2.75v3.06Z" style="fill: #b80e1a;"/>
      <path d="M128.62,261.03l-.03-2.21h-1.5v13.92h1.53v-9.56c.28-1.02.76-1.8,1.42-2.33.66-.54,1.48-.81,2.44-.81.37,0,.71.03,1.04.09l.04-1.4c-.25-.11-.59-.17-1.02-.17-1.8,0-3.11.82-3.92,2.47Z" style="fill: #b80e1a;"/>
      <path d="M152.97,265.88v-.86c0-2-.5-3.57-1.49-4.73s-2.33-1.73-4.02-1.73c-1.08,0-2.08.31-3.01.92s-1.65,1.46-2.17,2.53c-.52,1.07-.78,2.28-.78,3.61v.55c0,1.3.26,2.46.8,3.51.53,1.04,1.28,1.85,2.23,2.44.96.58,2.02.88,3.21.88,2.15,0,3.79-.82,4.93-2.46l-.96-.73c-.52.66-1.09,1.14-1.72,1.44-.63.3-1.36.45-2.18.45-1.37,0-2.51-.53-3.42-1.58-.91-1.05-1.36-2.36-1.36-3.94v-.29h9.93ZM144.54,261.15c.79-.85,1.77-1.27,2.93-1.27s2.11.42,2.83,1.26c.72.84,1.1,1.93,1.15,3.27v.17h-8.35c.17-1.43.65-2.57,1.45-3.42Z" style="fill: #b80e1a;"/>
      <path d="M164.32,265.11h4.76c2.06,0,3.63-.48,4.71-1.44,1.08-.96,1.63-2.31,1.63-4.07s-.56-3.11-1.69-4.1-2.66-1.49-4.61-1.49h-6.38v18.73h1.58v-7.63ZM164.32,255.35h4.9c1.47.02,2.61.41,3.41,1.18.8.77,1.2,1.8,1.2,3.1s-.4,2.32-1.21,3.05c-.81.73-1.98,1.09-3.51,1.09h-4.8v-8.43Z" style="fill: #b80e1a;"/>
      <path d="M180.13,261.03l-.03-2.21h-1.5v13.92h1.53v-9.56c.28-1.02.76-1.8,1.42-2.33.66-.54,1.48-.81,2.44-.81.37,0,.71.03,1.04.09l.04-1.4c-.25-.11-.59-.17-1.02-.17-1.8,0-3.11.82-3.92,2.47Z" style="fill: #b80e1a;"/>
      <path d="M192.56,258.56c-1.2,0-2.28.3-3.22.89-.95.6-1.68,1.43-2.2,2.5-.52,1.07-.78,2.28-.78,3.61v.31c0,2.14.58,3.87,1.73,5.16,1.15,1.3,2.65,1.95,4.5,1.95,1.21,0,2.29-.29,3.23-.88.94-.58,1.67-1.41,2.19-2.49.52-1.08.78-2.29.78-3.63v-.32c0-2.14-.57-3.87-1.72-5.17-1.15-1.3-2.65-1.95-4.5-1.95ZM197.26,265.87c0,1.75-.43,3.16-1.29,4.23-.86,1.07-1.99,1.6-3.38,1.6s-2.53-.53-3.39-1.6c-.86-1.07-1.29-2.43-1.29-4.1v-.28c0-1.74.43-3.15,1.3-4.23.87-1.08,1.99-1.61,3.36-1.61.92,0,1.73.24,2.44.73.71.49,1.26,1.17,1.66,2.05.39.88.59,1.86.59,2.92v.3Z" style="fill: #b80e1a;"/>
      <path d="M205.32,254.84c.47-.53,1.13-.79,1.98-.79.51,0,.97.05,1.4.15l.11-1.28c-.51-.14-1.05-.22-1.63-.22-1.29,0-2.3.38-3.03,1.14-.72.76-1.09,1.86-1.09,3.28v1.69h-2.3v1.26h2.3v12.66h1.54v-12.66h3.32v-1.26h-3.32v-1.73c0-.97.24-1.72.71-2.25Z" style="fill: #b80e1a;"/>
      <rect x="210.87" y="258.82" width="1.54" height="13.92" style="fill: #b80e1a;"/>
      <path d="M212.72,254.8c0-.29-.1-.54-.29-.74-.19-.2-.45-.3-.78-.3s-.58.1-.77.3-.28.45-.28.74.09.53.28.73c.19.2.45.29.77.29s.58-.1.78-.29c.19-.2.29-.44.29-.73Z" style="fill: #b80e1a;"/>
      <path d="M223.94,270.99c-.66.47-1.53.71-2.6.71-1.15,0-2.07-.25-2.77-.75-.7-.5-1.08-1.2-1.14-2.1h-1.54c0,1.2.5,2.19,1.51,2.98,1.01.78,2.32,1.18,3.94,1.18,1.53,0,2.76-.35,3.71-1.06.95-.7,1.42-1.64,1.42-2.82,0-.72-.17-1.33-.49-1.84-.33-.51-.83-.94-1.5-1.3-.67-.36-1.69-.7-3.04-1.02-1.35-.32-2.28-.67-2.79-1.05-.51-.38-.77-.92-.77-1.62s.31-1.31.92-1.76c.61-.45,1.43-.68,2.44-.68s1.9.27,2.58.81c.68.54,1.02,1.22,1.02,2.03h1.54c0-1.23-.47-2.24-1.41-3-.94-.77-2.18-1.15-3.74-1.15-1.43,0-2.61.36-3.52,1.07-.92.72-1.38,1.62-1.38,2.72,0,.69.17,1.29.5,1.78s.84.9,1.52,1.24c.68.34,1.64.64,2.88.9,1.23.26,2.16.62,2.77,1.09.61.46.92,1.08.92,1.84,0,.72-.33,1.32-.99,1.79Z" style="fill: #b80e1a;"/>
      <path d="M237.28,270.99c-.66.47-1.53.71-2.6.71-1.15,0-2.07-.25-2.77-.75-.7-.5-1.08-1.2-1.14-2.1h-1.54c0,1.2.5,2.19,1.51,2.98,1.01.78,2.32,1.18,3.94,1.18,1.53,0,2.76-.35,3.71-1.06.95-.7,1.42-1.64,1.42-2.82,0-.72-.16-1.33-.49-1.84-.33-.51-.83-.94-1.5-1.3-.67-.36-1.68-.7-3.04-1.02-1.35-.32-2.28-.67-2.79-1.05-.51-.38-.76-.92-.76-1.62s.31-1.31.92-1.76c.61-.45,1.42-.68,2.44-.68s1.9.27,2.58.81c.68.54,1.02,1.22,1.02,2.03h1.54c0-1.23-.47-2.24-1.41-3-.94-.77-2.19-1.15-3.74-1.15-1.43,0-2.61.36-3.53,1.07-.92.72-1.38,1.62-1.38,2.72,0,.69.17,1.29.5,1.78s.84.9,1.52,1.24c.68.34,1.64.64,2.88.9,1.23.26,2.16.62,2.77,1.09s.92,1.08.92,1.84c0,.72-.33,1.32-.99,1.79Z" style="fill: #b80e1a;"/>
      <rect x="243.45" y="258.82" width="1.54" height="13.92" style="fill: #b80e1a;"/>
      <path d="M245.31,254.8c0-.29-.1-.54-.29-.74-.19-.2-.45-.3-.78-.3s-.58.1-.77.3-.28.45-.28.74.09.53.28.73c.19.2.45.29.77.29s.58-.1.78-.29c.19-.2.29-.44.29-.73Z" style="fill: #b80e1a;"/>
      <path d="M251.31,259.46c-.95.6-1.68,1.43-2.2,2.5-.52,1.07-.78,2.28-.78,3.61v.31c0,2.14.58,3.87,1.73,5.16,1.15,1.3,2.65,1.95,4.5,1.95,1.21,0,2.29-.29,3.23-.88.94-.58,1.67-1.41,2.19-2.49.52-1.08.78-2.29.78-3.63v-.32c0-2.14-.57-3.87-1.72-5.17-1.15-1.3-2.65-1.95-4.5-1.95-1.2,0-2.28.3-3.22.89ZM258.63,262.66c.39.88.59,1.86.59,2.92v.3c0,1.75-.43,3.16-1.29,4.23-.86,1.07-1.99,1.6-3.38,1.6s-2.53-.53-3.39-1.6c-.86-1.07-1.29-2.43-1.29-4.1v-.28c0-1.74.43-3.15,1.3-4.23.87-1.08,1.98-1.61,3.36-1.61.92,0,1.73.24,2.44.73.71.49,1.27,1.17,1.66,2.05Z" style="fill: #b80e1a;"/>
      <path d="M274.43,272.74v-9.13c-.01-1.68-.38-2.94-1.11-3.78-.73-.84-1.84-1.26-3.33-1.26-.94,0-1.81.22-2.59.68-.78.45-1.43,1.1-1.96,1.96l-.05-2.38h-1.47v13.92h1.53v-9.53c.35-1.01.89-1.82,1.63-2.41s1.58-.89,2.53-.89c1.14,0,1.97.3,2.49.91.52.61.78,1.54.79,2.78v9.15h1.53Z" style="fill: #b80e1a;"/>
      <path d="M284.09,264.65c-2.02,0-3.59.39-4.72,1.18-1.13.79-1.69,1.86-1.69,3.22,0,1.14.41,2.08,1.24,2.83s1.91,1.12,3.25,1.12c.93,0,1.82-.19,2.65-.57.84-.38,1.53-.92,2.07-1.63.04.86.14,1.51.3,1.94h1.65v-.15c-.28-.67-.42-1.68-.42-3.02v-6.59c-.03-1.39-.49-2.47-1.38-3.25-.9-.78-2.12-1.16-3.67-1.16s-2.77.4-3.79,1.22c-1.03.81-1.54,1.77-1.54,2.88h1.54c0-.76.35-1.42,1.05-1.97s1.59-.82,2.66-.82c1.18,0,2.07.29,2.68.86.61.57.92,1.35.92,2.35v1.58h-2.79ZM286.89,268.89c-.37.83-.96,1.5-1.77,1.99-.81.5-1.73.75-2.76.75-.93,0-1.68-.26-2.26-.77-.58-.52-.87-1.16-.87-1.94,0-.95.43-1.7,1.3-2.24.87-.55,2.07-.83,3.6-.84h2.75v3.06Z" style="fill: #b80e1a;"/>
      <rect x="292.7" y="252.98" width="1.54" height="19.76" style="fill: #b80e1a;"/>
      <rect x="298.61" y="258.82" width="1.54" height="13.92" style="fill: #b80e1a;"/>
      <path d="M300.46,254.8c0-.29-.1-.54-.29-.74s-.45-.3-.78-.3-.58.1-.77.3-.28.45-.28.74.09.53.28.73c.19.2.45.29.77.29s.58-.1.78-.29c.19-.2.29-.44.29-.73Z" style="fill: #b80e1a;"/>
      <polygon points="303.44 272.74 314.39 272.74 314.39 271.44 305.35 271.44 313.82 259.98 313.82 258.82 303.7 258.82 303.7 260.16 311.88 260.16 303.44 271.61 303.44 272.74" style="fill: #b80e1a;"/>
      <path d="M327.15,262.98c-.03-1.39-.49-2.47-1.38-3.25-.9-.78-2.12-1.16-3.67-1.16s-2.77.4-3.8,1.22c-1.03.81-1.54,1.77-1.54,2.88h1.54c0-.76.35-1.42,1.05-1.97.7-.55,1.59-.82,2.66-.82,1.18,0,2.07.29,2.68.86.61.57.92,1.35.92,2.35v1.58h-2.79c-2.02,0-3.59.39-4.71,1.18-1.13.79-1.69,1.86-1.69,3.22,0,1.14.41,2.08,1.24,2.83.83.75,1.91,1.12,3.25,1.12.93,0,1.82-.19,2.66-.57.84-.38,1.52-.92,2.07-1.63.04.86.14,1.51.3,1.94h1.65v-.15c-.28-.67-.42-1.68-.42-3.02v-6.59ZM325.62,268.89c-.37.83-.96,1.5-1.77,1.99-.81.5-1.73.75-2.76.75-.93,0-1.68-.26-2.26-.77-.58-.52-.87-1.16-.87-1.94,0-.95.43-1.7,1.3-2.24.87-.55,2.07-.83,3.6-.84h2.75v3.06Z" style="fill: #b80e1a;"/>
      <path d="M332.79,261.03l-.03-2.21h-1.5v13.92h1.53v-9.56c.28-1.02.76-1.8,1.42-2.33.67-.54,1.48-.81,2.44-.81.37,0,.72.03,1.04.09l.04-1.4c-.25-.11-.59-.17-1.02-.17-1.8,0-3.11.82-3.92,2.47Z" style="fill: #b80e1a;"/>
      <path d="M457,183.94h-17.63v6.3c-1.41-1.44-2.61-2.96-4.08-4.12-5.11-4.02-11.04-4.32-17.08-3.17-8.42,1.6-14.06,6.85-17.46,14.49-3.59,8.08-3.92,16.6-2.32,25.18,1.19,6.4,4.14,11.87,9.49,15.81,4.48,3.3,9.61,4.27,15.05,3.99,5.97-.31,10.94-2.64,14.7-7.36.53-.67,1.05-1.36,1.71-2.22,0,2.42.07,4.55-.01,6.68-.25,6.46-4.26,11.96-10.37,14.13-5.72,2.03-11.52,1.74-17.23.02-3-.9-5.87-2.26-8.85-3.43-.02.33-.05.77-.05,1.2,0,3.27,0,6.53,0,9.8,0,3.75-.02,3.83,3.69,4.87,8.81,2.48,17.71,2.5,26.63.6,6.36-1.36,11.94-4.2,16.32-9.13,5.15-5.8,7.42-12.78,7.51-20.34.19-17.47.09-34.94.1-52.41,0-.3-.06-.6-.1-.89ZM438.74,220c-1.15,4.13-3.69,7.28-8.01,8.51-6.13,1.74-11.84-1.15-13.91-7.24-2.08-6.09-1.87-12.26.62-18.2,2.56-6.09,8.94-8.8,14.83-6.37,4.76,1.97,6.85,5.96,7.36,10.88.14,1.35.02,2.72.02,4.08.12.02.23.03.35.05-.4,2.77-.51,5.61-1.25,8.28Z" style="fill: #b80e1a;"/>
      <path d="M104.01,225.27h-29.88v-18.33h26.06v-14.65h-26.05v-17.91h27.98v-14.56h-46.11v80.04h47.99v-14.59Z" style="fill: #b80e1a;"/>
      <path d="M548.02,208.21c-.02-.68-.15-1.35-.25-2.02-1.43-9.38-6.08-16.63-14.77-20.62-9.64-4.43-19.66-4.32-29.5-.63-8.35,3.12-13.72,9.26-16.08,17.88-1.52,5.55-1.67,11.21-.61,16.85,1.8,9.59,6.99,16.68,16.18,20.29,9.12,3.59,18.47,3.49,27.64.13,6.91-2.53,11.84-7.41,14.84-14.16,2-4.5,2.7-9.28,2.57-14.18,0-1.18.03-2.36-.01-3.54ZM528.95,220.66c-1.65,5.72-6.06,8.63-12,8.3-7.43-.41-11.69-4.49-12.51-11.93-.45-4.13-.48-8.22.77-12.24,3.04-9.78,13.01-10.27,18.64-7.4,3.83,1.96,5.26,5.57,5.92,9.55.28,1.69.32,3.42.46,5.14.08.02.15.04.23.07-.49,2.84-.72,5.76-1.51,8.51Z" style="fill: #b80e1a;"/>
      <path d="M393.28,196.02c-1.4-6-4.67-10.55-10.78-12.59-2.84-.95-5.78-1.08-8.73-.94-4.33.22-8.32,1.5-11.58,4.39-1.93,1.71-3.57,3.76-5.4,5.71v-8.67h-17.56v57.04h17.57c0-.62,0-1.15,0-1.69,0-10.62-.03-21.24.06-31.85.03-3.9,1.51-7.26,4.71-9.66,5.2-3.9,12.35-1.69,14.3,4.47.49,1.53.82,3.19.83,4.79.09,10.8.09,21.6.11,32.4,0,.52,0,1.04,0,1.56h17.58c.02-.39.04-.62.04-.84,0-11.84.07-23.69-.05-35.53-.03-2.87-.44-5.79-1.09-8.6Z" style="fill: #b80e1a;"/>
      <path d="M165,182.78h-17.58c0,.61,0,1.14,0,1.67,0,10.71.08,21.42-.08,32.13-.03,2.09-.7,4.32-1.63,6.21-1.94,3.95-6.17,5.69-10.86,4.9-3.83-.65-6.29-3.2-7.06-7.58-.32-1.82-.46-3.69-.47-5.54-.04-10.07-.01-20.15,0-30.22,0-.52,0-1.04,0-1.59h-17.54c0,.51,0,.87,0,1.22,0,11.43-.04,22.87.06,34.3.02,2.7.34,5.43.85,8.08.84,4.31,2.61,8.24,6.17,11.03,5.07,3.97,10.93,4.58,17.03,3.49,5.37-.96,9.36-4.14,12.47-8.51.26-.37.55-.72.83-1.08.09.04.18.09.28.13v8.45h17.54v-57.09Z" style="fill: #b80e1a;"/>
      <path d="M270.18,195.93c-1.98-3.92-4.8-7.12-8.45-9.58-5.66-3.83-12.03-5.03-18.74-5.31-3.14.4-6.34.54-9.4,1.25-9.98,2.29-17.11,8.04-20.44,17.92-1.95,5.77-2.17,11.75-1.17,17.73,1.58,9.44,6.52,16.46,15.32,20.54,3.53,1.64,7.29,2.42,11.15,2.71,5.89.45,11.68-.02,17.24-2.15.54-.21,1.12-.8,1.3-1.34,4.49-13.27,8.94-26.56,13.34-39.86.19-.57.12-1.37-.15-1.91ZM254.48,218.83c-1.67,6.14-5.58,9.03-11.92,8.97-7.59-.08-12.11-4.39-12.92-12.23-.42-4.01-.39-7.97.83-11.85,2.68-8.5,13.08-11.87,20.1-6.54,2.24,1.7,3.45,4.08,4.08,6.72,1.19,4.98,1.17,9.98-.18,14.93Z" style="fill: #b80e1a;"/>
      <path d="M464.56,241.01h17.48v-84.57h-17.48v84.57Z" style="fill: #b80e1a;"/>
      <path d="M212.78,183.5c.02-1.08-.44-1.38-1.35-1.57-7.32-1.48-13.82,1.89-17.14,8.92-.33.7-.64,1.42-.96,2.13-.1-.02-.21-.05-.31-.07v-10.1h-17.49v57.08h17.54c0-.6,0-1.13,0-1.66,0-8.53.01-17.07,0-25.6,0-3.06.33-6.06,1.65-8.87,2.13-4.56,5.65-7.05,10.74-6.8,2.43.12,4.84.74,7.29,1.13,0-4.69-.04-9.64.03-14.58Z" style="fill: #b80e1a;"/>
      <path d="M310.18,162.05c-.33-.94-.8-1.21-1.76-1.21-6.13.04-12.25.07-18.38-.02-1.39-.02-1.93.44-2.39,1.7-8.72,24.11-17.49,48.2-26.26,72.3-.74,2.03-1.47,4.06-2.23,6.15.34.04.52.07.7.07,5.95,0,11.89-.01,17.84.02.8,0,1.07-.3,1.29-1.02,1.62-5.23,3.3-10.43,4.93-15.65.25-.81.58-1.16,1.49-1.16,8.8.03,17.61.03,26.41,0,.83,0,1.2.3,1.43,1.06.8,2.64,1.64,5.26,2.48,7.89.95,2.95,1.91,5.9,2.85,8.82h19.56c-.12-.42-.21-.76-.33-1.09-9.21-25.95-18.44-51.9-27.63-77.86ZM288.27,209.38c3.2-11.48,7.78-22.49,10.36-34.5.23,1.46.29,2.65.61,3.75,1.6,5.47,3.23,10.92,4.91,16.36,1.38,4.49,2.84,8.97,4.27,13.45.08.25.14.5.26.93h-20.42Z" style="fill: #b80e1a;"/>
      <path d="M91.56,106.98c-1.85.24-3.5.5-5.16.63-.46.04-1.05-.16-1.41-.46-1.25-1.03-2.43-2.16-3.82-3.41-.29,1.6-.56,3.01-.79,4.42-.15.97-.44,1.73-1.46,2.21-1.35.63-2.61,1.47-4.07,2.32,1.6.85,3.04,1.53,4.37,2.37.5.31.95.94,1.11,1.52.42,1.5.66,3.05,1.02,4.83,1.27-1.22,2.32-2.33,3.5-3.29.5-.41,1.25-.7,1.88-.69,1.57.03,3.14.27,4.94.45-.75-1.57-1.36-3.01-2.11-4.38-.39-.72-.4-1.29-.04-2.01.7-1.41,1.3-2.87,2.02-4.5Z" style="fill: #b80e1a;"/>
      <path d="M177.19,63.21c-.07,1.52-.33,3.03-.54,4.8,1.52-.7,2.86-1.23,4.11-1.91.93-.51,1.71-.54,2.65-.03,1.25.69,2.59,1.22,4.13,1.93-.18-1.62-.21-3.02-.51-4.36-.26-1.17.03-1.95.88-2.74,1.04-.95,1.94-2.05,3.05-3.23-1.88-.37-3.44-.62-4.96-1.01-.53-.14-1.12-.55-1.41-1.01-.87-1.37-1.61-2.82-2.48-4.38-.87,1.56-1.61,3.01-2.47,4.37-.29.46-.88.88-1.41,1.02-1.52.4-3.08.64-4.98,1.01,1.27,1.35,2.41,2.44,3.38,3.66.39.48.59,1.26.56,1.89Z" style="fill: #b80e1a;"/>
      <path d="M120.27,73.25c-1.14,1.08-2.42,2.02-3.81,3.16,1.64.55,3.06,1.08,4.51,1.5.85.25,1.37.68,1.66,1.56.48,1.46,1.1,2.88,1.72,4.47,1.06-1.42,2.02-2.63,2.89-3.9.52-.76,1.14-1.04,2.04-1.05,1.48,0,2.96-.14,4.7-.23-1.09-1.54-2.06-2.84-2.92-4.2-.26-.42-.38-1.08-.28-1.57.33-1.58.78-3.14,1.25-4.96-1.52.46-2.82.72-4,1.25-1.29.58-2.28.33-3.35-.48-1.02-.78-2.17-1.4-3.51-2.25,0,1.82.08,3.36-.04,4.87-.05.63-.4,1.38-.86,1.81Z" style="fill: #b80e1a;"/>
      <path d="M245.29,70.62c-.07-.13-.14-.26-.21-.39-1.44,0-2.87-.02-4.31,0-.93.02-1.6-.27-2.15-1.09-.85-1.27-1.86-2.44-2.89-3.78-.51,1.35-1.07,2.54-1.41,3.79-.38,1.42-1.17,2.19-2.61,2.52-1.23.29-2.39.83-3.75,1.32,1.42,1.13,2.59,2.12,3.83,3.03.64.47.93.99.89,1.81-.07,1.55-.02,3.11-.02,5.03,1.75-1.15,3.03-2.08,4.39-2.86.47-.27,1.19-.35,1.73-.23,1.56.36,3.09.87,4.84,1.38-.45-1.66-.79-3.15-1.27-4.58-.29-.87-.17-1.53.37-2.26.9-1.2,1.72-2.46,2.57-3.7Z" style="fill: #b80e1a;"/>
      <path d="M275.47,112.77c1.25.94,2.38,2.02,3.68,3.16.3-1.83.51-3.45.87-5.03.12-.53.54-1.1.99-1.41,1.32-.9,2.73-1.69,4.24-2.6-1.61-.82-3.09-1.5-4.49-2.32-.47-.27-.9-.85-1.06-1.37-.46-1.53-.78-3.11-1.27-5.18-1.16,1.29-2.14,2.28-3,3.37-.73.93-1.6,1.19-2.72,1.04-1.41-.19-2.83-.27-4.45-.41.7,1.37,1.23,2.57,1.91,3.68.69,1.13.84,2.15.15,3.37-.63,1.12-1.02,2.38-1.62,3.82,1.79-.26,3.33-.56,4.89-.66.62-.04,1.39.18,1.88.56Z" style="fill: #b80e1a;"/>
      <path d="M308.81,291.96c-1.03-.01-1.74.27-2.45,1.06-8.99,10.06-19,18.97-30.13,26.6-25.74,17.64-54.2,27.46-85.32,29.52-9.84.65-19.68.36-29.49-.72-12.1-1.34-23.94-3.87-35.44-7.85-38.23-13.23-68.14-37.01-89.64-71.23-15.03-23.93-23.21-50.16-25.07-78.34-.65-9.89-.37-19.77.72-29.63,1.18-10.65,3.31-21.09,6.52-31.32,9.98-31.87,27.8-58.56,53.41-79.93,27.16-22.65,58.51-35.41,93.72-38.6,11.1-1.01,22.2-.81,33.29.43,10.69,1.19,21.19,3.3,31.45,6.54,35.57,11.22,64.4,31.92,86.54,61.88,13.99,18.94,23.43,40,28.54,63,.61,2.76,1.16,5.54,1.72,8.26h10.91C345.28,69.79,275.47,3.22,186.35.11,99.98-2.9,23.68,55.88,4.54,140.17c-19.21,84.55,23.89,170.58,104.16,205.36,77.5,33.58,164.33,8.21,212.7-53.55-4.35,0-8.47.03-12.59-.02Z" style="fill: #b80e1a;"/>
      <path d="M533.43,168.36h2.24l4.01,4.76h2.07l-4.5-5.24c.76-.29,1.36-.73,1.79-1.32.43-.58.65-1.3.65-2.17,0-.64-.12-1.16-.37-1.58-.24-.42-.58-.76-1.02-1.03-.39-.24-.82-.41-1.3-.5-.48-.09-1.09-.14-1.81-.14h-3.35v11.98h1.59v-4.76ZM533.43,162.51h1.87c.43,0,.8.03,1.12.09.32.06.59.17.82.33.28.18.48.41.6.67.12.27.18.57.18.91,0,.45-.06.82-.17,1.11-.12.29-.29.55-.54.78-.26.24-.58.41-.96.49-.38.09-.82.13-1.32.13h-1.61v-4.52Z" style="fill: #b80e1a;"/>
      <path d="M535.56,178.79c6.16,0,11.18-5.01,11.18-11.18s-5.01-11.18-11.18-11.18-11.18,5.01-11.18,11.18,5.01,11.18,11.18,11.18ZM535.56,158.08c5.26,0,9.53,4.28,9.53,9.53s-4.28,9.53-9.53,9.53-9.53-4.28-9.53-9.53,4.28-9.53,9.53-9.53Z" style="fill: #b80e1a;"/>
    </g>
  </g>
</svg>